<?xml version="1.0" encoding="UTF-8" standalone="no"?>
<svg width="51px" height="49px" viewBox="0 0 51 49" version="1.1" xmlns="http://www.w3.org/2000/svg" xmlns:xlink="http://www.w3.org/1999/xlink" xmlns:sketch="http://www.bohemiancoding.com/sketch/ns">
    <!-- Generator: Sketch 3.3.2 (12043) - http://www.bohemiancoding.com/sketch -->
    <title>icon_chart</title>
    <desc>Created with Sketch.</desc>
    <defs></defs>
    <g id="Homepage" stroke="none" stroke-width="1" fill="none" fill-rule="evenodd" sketch:type="MSPage">
        <g id="Deliverable-Homepage" sketch:type="MSArtboardGroup" transform="translate(-681.000000, -726.000000)">
            <g id="Features" sketch:type="MSLayerGroup" transform="translate(0.000000, 655.000000)">
                <g id="Feature-title-2-+-Nam-porttitor-blandi-Copy-+-thin-0401_graph_growth_money_stock_inflation" transform="translate(591.000000, 70.000000)" sketch:type="MSShapeGroup">
                    <g id="icon_chart" transform="translate(90.000000, 0.000000)">
                        <g id="Group" transform="translate(0.833333, 2.916667)" stroke="#42BD41" stroke-width="2.08333333">
                            <path d="M26.1539583,5.56 L31.4227083,0.329791667 L36.6914583,5.56" id="Shape"></path>
                            <path d="M3.88958333,31.3214583 C3.88958333,31.3214583 31.4222917,30.4725 31.4222917,5.35541667 L31.4227083,0.33" id="Shape"></path>
                            <circle id="Oval" cx="9.81270833" cy="11.608125" r="9.19958333"></circle>
                            <path d="M6.495,15.10125 C7.3875,15.878125 8.76395833,16.4616667 9.7575,16.4616667 C11.3470833,16.4616667 12.6358333,15.335 12.6358333,13.945 C12.6358333,12.555 11.2597917,11.8675 9.7575,11.4283333 C8.20041667,10.9404167 6.87916667,10.3016667 6.87916667,8.91166667 C6.87916667,7.52166667 8.16791667,6.395 9.7575,6.395 C10.8279167,6.395 11.761875,6.90583333 12.2577083,7.66395833" id="Shape"></path>
                            <path d="M9.7575,5.01979167 L9.7575,6.395" id="Shape"></path>
                            <path d="M9.7575,16.4614583 L9.7575,17.836875" id="Shape"></path>
                            <rect id="Rectangle-path" x="44.065625" y="2.29166667" width="4.16666667" height="43.75"></rect>
                            <rect id="Rectangle-path" x="33.6483333" y="21.0429167" width="4.16666667" height="24.99875"></rect>
                            <rect id="Rectangle-path" x="23.2310417" y="31.4602083" width="4.16666667" height="14.5814583"></rect>
                            <rect id="Rectangle-path" x="12.81375" y="37.710625" width="4.16666667" height="8.33104167"></rect>
                            <rect id="Rectangle-path" x="2.39625" y="39.7941667" width="4.16666667" height="6.24770833"></rect>
                        </g>
                        <rect id="Rectangle-path" x="0" y="0" width="50" height="50"></rect>
                    </g>
                </g>
            </g>
        </g>
    </g>
</svg>