<?xml version="1.0" encoding="UTF-8" standalone="no"?>
<svg width="53px" height="52px" viewBox="0 0 53 52" version="1.1" xmlns="http://www.w3.org/2000/svg" xmlns:xlink="http://www.w3.org/1999/xlink" xmlns:sketch="http://www.bohemiancoding.com/sketch/ns">
    <!-- Generator: Sketch 3.4.1 (15681) - http://www.bohemiancoding.com/sketch -->
    <title>Clouding</title>
    <desc>Created with Sketch.</desc>
    <defs></defs>
    <g id="Page-1" stroke="none" stroke-width="1" fill="none" fill-rule="evenodd" sketch:type="MSPage">
        <g id="Clouding" sketch:type="MSLayerGroup" transform="translate(1.000000, 1.000000)" stroke="#42BD41" stroke-width="2">
            <path d="M18.0322581,15 C15.2530187,15 13,12.7614237 13,10 C13,7.23857625 15.2530187,5 18.0322581,5 C18.0520871,5 18.0718893,5.00011395 18.0916641,5.00034123 C18.4984831,2.17326309 20.9454207,0 23.9032258,0 C26.3125699,0 28.3829397,1.4420186 29.2877898,3.504809 C30.2726675,2.86919755 31.4477789,2.5 32.7096774,2.5 C36.1837267,2.5 39,5.29822031 39,8.75 C39,12.2017797 36.1837267,15 32.7096774,15 C32.5687622,15 32.4289293,14.9953961 32.2903226,14.9863314 L32.2903226,15 L18.0322581,15 Z" id="Oval-389" sketch:type="MSShapeGroup"></path>
            <path d="M34.0645161,50 C31.8197459,50 30,48.209139 30,46 C30,43.790861 31.8197459,42 34.0645161,42 C34.0805319,42 34.096526,42.0000912 34.1124979,42.000273 C34.4410825,39.7386105 36.4174552,38 38.8064516,38 C40.7524603,38 42.424682,39.1536149 43.1555226,40.8038472 C43.9510007,40.295358 44.9001291,40 45.9193548,40 C48.7253177,40 51,42.2385763 51,45 C51,47.7614237 48.7253177,50 45.9193548,50 C45.8055387,50 45.6925967,49.9963169 45.5806452,49.9890651 L45.5806452,50 L34.0645161,50 Z" id="Oval-389" sketch:type="MSShapeGroup"></path>
            <path d="M4.06451613,50 C1.81974586,50 0,48.209139 0,46 C0,43.790861 1.81974586,42 4.06451613,42 C4.08053187,42 4.09652598,42.0000912 4.11249794,42.000273 C4.44108254,39.7386105 6.41745517,38 8.80645161,38 C10.7524603,38 12.424682,39.1536149 13.1555226,40.8038472 C13.9510007,40.295358 14.9001291,40 15.9193548,40 C18.7253177,40 21,42.2385763 21,45 C21,47.7614237 18.7253177,50 15.9193548,50 C15.8055387,50 15.6925967,49.9963169 15.5806452,49.9890651 L15.5806452,50 L4.06451613,50 Z" id="Oval-389" sketch:type="MSShapeGroup"></path>
            <circle id="Oval-398" sketch:type="MSShapeGroup" cx="26" cy="27" r="4"></circle>
            <path d="M26,15 L26,22.5" id="Line" stroke-linecap="square" sketch:type="MSShapeGroup"></path>
            <path d="M28.5,30.5 L36,39" id="Line" sketch:type="MSShapeGroup"></path>
            <path d="M16.5,30.5 L24,40" id="Line" sketch:type="MSShapeGroup" transform="translate(20.000000, 35.000000) scale(-1, 1) translate(-20.000000, -35.000000) "></path>
        </g>
    </g>
</svg>