<?xml version="1.0" encoding="UTF-8" standalone="no"?>
<svg width="59px" height="51px" viewBox="0 0 59 51" version="1.1" xmlns="http://www.w3.org/2000/svg" xmlns:xlink="http://www.w3.org/1999/xlink" xmlns:sketch="http://www.bohemiancoding.com/sketch/ns">
    <!-- Generator: Sketch 3.4.1 (15681) - http://www.bohemiancoding.com/sketch -->
    <title>CloudWI</title>
    <desc>Created with Sketch.</desc>
    <defs></defs>
    <g id="Page-1" stroke="none" stroke-width="1" fill="none" fill-rule="evenodd" sketch:type="MSPage">
        <g id="CloudWI" sketch:type="MSLayerGroup" transform="translate(1.000000, 1.000000)" stroke="#42BD41" stroke-width="2">
            <path d="M27.2367463,16.9276448 C26.1068551,16.6018118 24.9122615,16.4271489 23.67661,16.4271489 C17.253667,16.4271489 11.9400848,21.1464406 11.0566678,27.2855069 C11.0137263,27.2850134 10.9707253,27.284766 10.9276662,27.284766 C4.89248279,27.284766 0,32.1458867 0,38.142383 C0,44.1388793 4.89248279,49 10.9276662,49 L42.8000258,49 C50.344005,49 56.4596085,42.9235991 56.4596085,35.4279787 C56.4596085,29.74906 52.9492178,24.8847813 47.9668404,22.8604797 C47.9888105,22.5765391 48,22.2895763 48,22 C48,15.9248678 43.0751322,11 37,11 C32.7543235,11 29.0704447,13.4053424 27.2367463,16.9276448 Z" id="Oval-394" sketch:type="MSShapeGroup"></path>
            <path d="M47.6672699,9.4884521 C41.8204672,3.64164939 32.3237226,3.65885384 26.4556971,9.5268793" id="Oval-474" stroke-linecap="round" stroke-linejoin="round" sketch:type="MSShapeGroup"></path>
            <path d="M52.5027681,6.67230918 C43.9902315,-1.84022739 30.1636344,-1.81517892 21.6201989,6.7282565" id="Oval-473" stroke-linecap="round" stroke-linejoin="round" sketch:type="MSShapeGroup"></path>
        </g>
    </g>
</svg>