<?xml version="1.0" encoding="UTF-8" standalone="no"?>
<svg width="32px" height="48px" viewBox="0 0 32 48" version="1.1" xmlns="http://www.w3.org/2000/svg" xmlns:xlink="http://www.w3.org/1999/xlink" xmlns:sketch="http://www.bohemiancoding.com/sketch/ns">
    <!-- Generator: Sketch 3.3.2 (12043) - http://www.bohemiancoding.com/sketch -->
    <title>icon_oneclick</title>
    <desc>Created with Sketch.</desc>
    <defs></defs>
    <g id="Design" stroke="none" stroke-width="1" fill="none" fill-rule="evenodd" sketch:type="MSPage">
        <g id="Features-2" sketch:type="MSArtboardGroup" transform="translate(-199.000000, -622.000000)" stroke-linejoin="round">
            <g id="Rectangle-13-+-Group" sketch:type="MSLayerGroup" transform="translate(200.000000, 601.000000)">
                <g id="Group" sketch:type="MSShapeGroup">
                    <g id="Global-Supply-Chain--+-Curabitur-lobortis-i-+-Stroke-5470-+-Stroke-5471-Copy">
                        <g id="icon_oneclick" transform="translate(0.000000, 22.000000)">
                            <path d="M12,15 C12,13.362 13.36,12 15,12 C16.656,12 18,13.344 18,15 L18,27 L26.836,30 C28.814,30.636 29.466,32.974 29,35 L27,46 L11,46 L3,34 C2.092,32.614 2,30 4,30 C6,30 8,30.838 12,37 L12,15 L12,15 Z" id="Stroke-284" stroke="#66655D"></path>
                            <path d="M30,14 L24,14" id="Stroke-285" stroke="#3498DB" stroke-linecap="round"></path>
                            <path d="M26,4 L22,8" id="Stroke-286" stroke="#3498DB" stroke-linecap="round"></path>
                            <path d="M16,0 L16,6" id="Stroke-287" stroke="#3498DB" stroke-linecap="round"></path>
                            <path d="M4,4 L8,8" id="Stroke-288" stroke="#3498DB" stroke-linecap="round"></path>
                            <path d="M0,14 L6,14" id="Stroke-289" stroke="#3498DB" stroke-linecap="round"></path>
                        </g>
                    </g>
                </g>
            </g>
        </g>
    </g>
</svg>