<?xml version="1.0" encoding="UTF-8" standalone="no"?>
<svg width="48px" height="44px" viewBox="0 0 48 44" version="1.1" xmlns="http://www.w3.org/2000/svg" xmlns:xlink="http://www.w3.org/1999/xlink" xmlns:sketch="http://www.bohemiancoding.com/sketch/ns">
    <!-- Generator: Sketch 3.3.2 (12043) - http://www.bohemiancoding.com/sketch -->
    <title>icon_printer</title>
    <desc>Created with Sketch.</desc>
    <defs></defs>
    <g id="Design" stroke="none" stroke-width="1" fill="none" fill-rule="evenodd" sketch:type="MSPage">
        <g id="Features-2" sketch:type="MSArtboardGroup" transform="translate(-199.000000, -909.000000)" stroke-linecap="round" stroke-linejoin="round">
            <g id="Rectangle-13-+-Group" sketch:type="MSLayerGroup" transform="translate(200.000000, 601.000000)">
                <g id="Group" sketch:type="MSShapeGroup">
                    <g id="Global-Supply-Chain--+-Curabitur-lobortis-i-+-Stroke-5470-+-Stroke-5471-Copy-5" transform="translate(0.000000, 282.000000)">
                        <g id="icon_printer" transform="translate(0.000000, 27.000000)">
                            <path d="M10,32 L4,32 C1.8,32 0,30.2 0,28 L0,16 C0,13.8 1.8,12 4,12 L42,12 C44.202,12 46,13.8 46,16 L46,28 C46,30.2 44.202,32 42,32 L36,32" id="Stroke-693" stroke="#66655D"></path>
                            <path d="M10,8 L10,0 L30,0 L36,6 L36,8" id="Stroke-694" stroke="#66655D"></path>
                            <path d="M36,42 L10,42 L10,26 L36,26 L36,42 Z" id="Stroke-695" stroke="#3498DB"></path>
                            <path d="M8,18 C8,19.104 7.106,20 6,20 C4.896,20 4,19.104 4,18 C4,16.894 4.896,16 6,16 C7.106,16 8,16.894 8,18 L8,18 Z" id="Stroke-696" stroke="#66655D"></path>
                            <path d="M14,30 L32,30" id="Stroke-697" stroke="#3498DB"></path>
                            <path d="M14,34 L32,34" id="Stroke-698" stroke="#3498DB"></path>
                            <path d="M14,38 L32,38" id="Stroke-699" stroke="#3498DB"></path>
                            <path d="M30,0 L30,6 L36,6" id="Stroke-700" stroke="#66655D"></path>
                        </g>
                    </g>
                </g>
            </g>
        </g>
    </g>
</svg>