<?xml version="1.0" encoding="UTF-8" standalone="no"?>
<svg width="65px" height="54px" viewBox="0 0 65 54" version="1.1" xmlns="http://www.w3.org/2000/svg" xmlns:xlink="http://www.w3.org/1999/xlink" xmlns:sketch="http://www.bohemiancoding.com/sketch/ns">
    <!-- Generator: Sketch 3.3.2 (12043) - http://www.bohemiancoding.com/sketch -->
    <title>icon_softwareintef</title>
    <desc>Created with Sketch.</desc>
    <defs></defs>
    <g id="Docs" stroke="none" stroke-width="1" fill="none" fill-rule="evenodd" sketch:type="MSPage">
        <g sketch:type="MSArtboardGroup" transform="translate(-490.000000, -320.000000)" stroke-linecap="round" id="Group-+-Group-+-Line-8-Copy-2" stroke="#7F7F7F" stroke-width="2.17391304">
            <g sketch:type="MSLayerGroup" transform="translate(131.000000, 158.000000)">
                <g id="Group-+-Line-8-Copy-2" transform="translate(219.000000, 0.000000)" sketch:type="MSShapeGroup">
                    <g id="Group">
                        <g id="Group-Copy-2" transform="translate(40.000000, 164.000000)">
                            <g id="icon_softwareintef" transform="translate(102.000000, 0.000000)">
                                <rect id="Rectangle-435" x="0" y="8.69565217" width="61" height="41.3043478"></rect>
                                <rect id="Rectangle-436" x="0" y="0" width="61" height="8.69565217"></rect>
                                <ellipse id="Oval-475" cx="4.35714286" cy="4.34782609" rx="1.08928571" ry="1.08695652"></ellipse>
                                <ellipse id="Oval-476" cx="9.80357143" cy="4.34782609" rx="1.08928571" ry="1.08695652"></ellipse>
                                <ellipse id="Oval-477" cx="15.25" cy="4.34782609" rx="1.08928571" ry="1.08695652"></ellipse>
                                <path d="M25.426915,37.0278817 L24.6476978,37.8070989 C23.9304179,38.5243788 22.7703764,38.5272777 22.0454624,37.8023637 C21.3255673,37.0824686 21.3240257,35.9168297 22.0407272,35.2001283 L22.8143771,34.4264783 C22.1720983,33.4605967 21.7077922,32.366653 21.4681438,31.1912327 L20.3801882,31.1912327 C19.3658013,31.1912327 18.5434783,30.3730093 18.5434783,29.3478261 C18.5434783,28.3297407 19.3666193,27.5044195 20.3801882,27.5044195 L21.4681438,27.5044195 C21.7077922,26.3289992 22.1720983,25.2350555 22.8143771,24.2691738 L22.0407272,23.4955239 C21.3234473,22.778244 21.3205484,21.6182025 22.0454624,20.8932885 C22.7653575,20.1733934 23.9309963,20.1718518 24.6476978,20.8885533 L25.426915,21.6677705 C26.3919139,21.0317795 27.483824,20.5720321 28.6565934,20.3344815 L28.6565934,19.2280143 C28.6565934,18.2136274 29.4748167,17.3913043 30.5,17.3913043 C31.5180853,17.3913043 32.3434066,18.2144454 32.3434066,19.2280143 L32.3434066,20.3344815 C33.516176,20.5720321 34.6080861,21.0317795 35.573085,21.6677705 L36.3523022,20.8885533 C37.0695821,20.1712734 38.2296236,20.1683745 38.9545376,20.8932885 C39.6744327,21.6131835 39.6759743,22.7788224 38.9592728,23.4955239 L38.1856229,24.2691738 C38.8279017,25.2350555 39.2922078,26.3289992 39.5318562,27.5044195 L40.6198118,27.5044195 C41.6341987,27.5044195 42.4565217,28.3226428 42.4565217,29.3478261 C42.4565217,30.3659114 41.6333807,31.1912327 40.6198118,31.1912327 L39.5318562,31.1912327 C39.2922078,32.366653 38.8279017,33.4605967 38.1856229,34.4264783 L38.9592728,35.2001283 C39.6765527,35.9174082 39.6794516,37.0774497 38.9545376,37.8023637 C38.2346425,38.5222587 37.0690037,38.5238003 36.3523022,37.8070989 L35.573085,37.0278817 C34.6080861,37.6638727 33.516176,38.1236201 32.3434066,38.3611707 L32.3434066,39.4676379 C32.3434066,40.4820248 31.5251833,41.3043478 30.5,41.3043478 C29.4819147,41.3043478 28.6565934,40.4812067 28.6565934,39.4676379 L28.6565934,38.3611707 C27.483824,38.1236201 26.3919139,37.6638727 25.426915,37.0278817 L25.426915,37.0278817 Z M30.5,32.1070234 C32.027128,32.1070234 33.2651099,30.8716887 33.2651099,29.3478261 C33.2651099,27.8239635 32.027128,26.5886288 30.5,26.5886288 C28.972872,26.5886288 27.7348901,27.8239635 27.7348901,29.3478261 C27.7348901,30.8716887 28.972872,32.1070234 30.5,32.1070234 Z" id="Rectangle-355" stroke-linejoin="round" transform="translate(30.500000, 29.347826) rotate(-45.000000) translate(-30.500000, -29.347826) "></path>
                            </g>
                        </g>
                    </g>
                </g>
            </g>
        </g>
    </g>
</svg>