<?xml version="1.0" encoding="UTF-8" standalone="no"?>
<svg width="50px" height="50px" viewBox="0 0 50 50" version="1.1" xmlns="http://www.w3.org/2000/svg" xmlns:xlink="http://www.w3.org/1999/xlink" xmlns:sketch="http://www.bohemiancoding.com/sketch/ns">
    <!-- Generator: Sketch 3.3.2 (12043) - http://www.bohemiancoding.com/sketch -->
    <title>icon_calendar</title>
    <desc>Created with Sketch.</desc>
    <defs></defs>
    <g id="Homepage" stroke="none" stroke-width="1" fill="none" fill-rule="evenodd" sketch:type="MSPage">
        <g id="Deliverable-Homepage" sketch:type="MSArtboardGroup" transform="translate(-210.000000, -725.000000)">
            <g id="Features" sketch:type="MSLayerGroup" transform="translate(0.000000, 655.000000)">
                <g id="thin-0023_calendar_month_day_planner_events-+-Feature-title-1-+-Nam-porttitor-blandi" transform="translate(120.000000, 70.000000)" sketch:type="MSShapeGroup">
                    <g id="icon_calendar" transform="translate(90.000000, 0.000000)">
                        <g id="Group" transform="translate(0.833333, 0.833333)" stroke="#42BD41" stroke-width="2.0895522">
                            <rect id="Rectangle-path" x="0.208333333" y="12.7083333" width="47.9166667" height="35.4166667"></rect>
                            <path d="M22.3110417,4.99729167 L13.8877083,12.4914583" id="Shape"></path>
                            <path d="M26.2372917,4.81458333 L34.4458333,12.4914583" id="Shape"></path>
                            <circle id="Oval" cx="24.1664583" cy="3.12270833" r="2.650625"></circle>
                            <path d="M0.208333333,18.9583333 L48.125,18.9583333" id="Shape"></path>
                            <path d="M8.66041667,41.7708333 L10.6079167,41.7708333" id="Shape"></path>
                            <path d="M14.9972917,41.7708333 L16.945,41.7708333" id="Shape"></path>
                            <path d="M21.11375,41.7708333 L23.06125,41.7708333" id="Shape"></path>
                            <path d="M27.364375,41.7708333 L29.311875,41.7708333" id="Shape"></path>
                            <path d="M8.66041667,37.60375 L10.6079167,37.60375" id="Shape"></path>
                            <path d="M14.9972917,37.60375 L16.945,37.60375" id="Shape"></path>
                            <path d="M21.11375,37.60375 L23.06125,37.60375" id="Shape"></path>
                            <path d="M27.364375,37.60375 L29.311875,37.60375" id="Shape"></path>
                            <path d="M33.615,37.60375 L35.5625,37.60375" id="Shape"></path>
                            <path d="M39.865625,37.60375 L41.813125,37.60375" id="Shape"></path>
                            <path d="M8.66041667,33.4366667 L10.6079167,33.4366667" id="Shape"></path>
                            <path d="M14.9972917,33.4366667 L16.945,33.4366667" id="Shape"></path>
                            <path d="M21.11375,33.4366667 L23.06125,33.4366667" id="Shape"></path>
                            <path d="M27.364375,33.4366667 L29.311875,33.4366667" id="Shape"></path>
                            <path d="M33.615,33.4366667 L35.5625,33.4366667" id="Shape"></path>
                            <path d="M39.865625,33.4366667 L41.813125,33.4366667" id="Shape"></path>
                            <path d="M8.66041667,29.2695833 L10.6079167,29.2695833" id="Shape"></path>
                            <path d="M14.9972917,29.2695833 L16.945,29.2695833" id="Shape"></path>
                            <path d="M21.11375,29.2695833 L23.06125,29.2695833" id="Shape"></path>
                            <path d="M27.364375,29.2695833 L29.311875,29.2695833" id="Shape"></path>
                            <path d="M33.615,29.2695833 L35.5625,29.2695833" id="Shape"></path>
                            <path d="M39.865625,29.2695833 L41.813125,29.2695833" id="Shape"></path>
                            <path d="M27.364375,25.1025 L29.311875,25.1025" id="Shape"></path>
                            <path d="M33.615,25.1025 L35.5625,25.1025" id="Shape"></path>
                            <path d="M39.865625,25.1025 L41.813125,25.1025" id="Shape"></path>
                        </g>
                        <rect id="Rectangle-path" x="0" y="0" width="50" height="50"></rect>
                    </g>
                </g>
            </g>
        </g>
    </g>
</svg>